<?xml version="1.0" encoding="utf-8"?><svg id="Logo_SubsidieManager" data-name="Logo SubsidieManager" xmlns="http://www.w3.org/2000/svg" xmlns:xlink="http://www.w3.org/1999/xlink" width="190.294" height="50" viewBox="0 0 190.294 50">
  <defs>
    <clipPath id="clip-path">
      <rect id="Rectangle_3" data-name="Rectangle 3" width="190.294" height="50" fill="none"/>
    </clipPath>
  </defs>
  <g id="Group_3" data-name="Group 3" transform="translate(0)" clip-path="url(#clip-path)">
    <g id="Group_2" data-name="Group 2" clip-path="url(#clip-path)">
      <path id="Path_1" data-name="Path 1" d="M389.18,151.2v-6.78a2.889,2.889,0,0,1,.927-2.426,4.138,4.138,0,0,1,2.593-.72,4.237,4.237,0,0,1,1.972.391,2.248,2.248,0,0,1,1.048,1.048,2.343,2.343,0,0,1,1.088-1.048,4.19,4.19,0,0,1,1.929-.391,6.339,6.339,0,0,1,1.479.158,2.741,2.741,0,0,1,1.1.526,2.3,2.3,0,0,1,.693.963,3.974,3.974,0,0,1,.243,1.5v6.78h-1.085v-6.685a2.3,2.3,0,0,0-.572-1.781,2.777,2.777,0,0,0-1.864-.506,2.9,2.9,0,0,0-1.864.486,2.142,2.142,0,0,0-.592,1.725V151.2h-1.1v-6.685a2.25,2.25,0,0,0-.592-1.781,2.855,2.855,0,0,0-1.883-.506,2.672,2.672,0,0,0-1.9.552,2.456,2.456,0,0,0-.536,1.752V151.2Z" transform="translate(-271.665 -104.514)" fill="#002f87"/>
      <path id="Path_2" data-name="Path 2" d="M443.6,150.6a1.167,1.167,0,0,1-.233.851,1.426,1.426,0,0,1-.927.214h-3.073a4.56,4.56,0,0,1-2.774-.657,2.617,2.617,0,0,1-.841-2.192v-.266a2.865,2.865,0,0,1,.851-2.3,4.212,4.212,0,0,1,2.764-.71,6.974,6.974,0,0,1,2.061.243,2.34,2.34,0,0,1,1.124.657v-1.124a4.271,4.271,0,0,0-.131-1.134,1.4,1.4,0,0,0-.47-.73,2.166,2.166,0,0,0-.937-.394,7.716,7.716,0,0,0-1.515-.122h-1.463c-.513,0-.986.02-1.387.046l.207-.986c.348,0,.763-.023,1.236-.03H439.5a8.463,8.463,0,0,1,1.9.181,3.188,3.188,0,0,1,1.265.559,2.222,2.222,0,0,1,.713.986,4.358,4.358,0,0,1,.224,1.489Zm-6.8-1.818a2.652,2.652,0,0,0,.122.861,1.315,1.315,0,0,0,.411.6,1.831,1.831,0,0,0,.789.358,5.916,5.916,0,0,0,1.246.112h3.185v-2.248a2.143,2.143,0,0,0-.2-.986,1.506,1.506,0,0,0-.572-.611,2.768,2.768,0,0,0-.927-.329,7.63,7.63,0,0,0-1.265-.092h-.243a3.257,3.257,0,0,0-1.972.46,1.943,1.943,0,0,0-.582,1.62Z" transform="translate(-302.929 -104.982)" fill="#002f87"/>
      <path id="Path_3" data-name="Path 3" d="M467.839,151.187v-6.425a5.892,5.892,0,0,1,.168-1.459,2.353,2.353,0,0,1,.618-1.1,2.909,2.909,0,0,1,1.239-.7,6.751,6.751,0,0,1,2-.243,7.04,7.04,0,0,1,2,.233,2.787,2.787,0,0,1,1.216.684,2.4,2.4,0,0,1,.608,1.1,5.825,5.825,0,0,1,.171,1.479v6.425h-1.088v-6.31a7.01,7.01,0,0,0-.085-1.154,1.644,1.644,0,0,0-.385-.835,1.818,1.818,0,0,0-.878-.5,5.669,5.669,0,0,0-1.558-.171,5.55,5.55,0,0,0-1.571.177,1.9,1.9,0,0,0-.881.516,1.624,1.624,0,0,0-.385.835,6.812,6.812,0,0,0-.085,1.134v6.31Z" transform="translate(-324.472 -104.503)" fill="#002f87"/>
      <path id="Path_4" data-name="Path 4" d="M506.835,150.6a1.166,1.166,0,0,1-.233.851,1.426,1.426,0,0,1-.927.214h-3.06a4.6,4.6,0,0,1-2.774-.657,2.622,2.622,0,0,1-.841-2.192v-.266a2.865,2.865,0,0,1,.851-2.3,4.212,4.212,0,0,1,2.764-.71,6.974,6.974,0,0,1,2.061.243,2.324,2.324,0,0,1,1.124.657v-1.124a4.13,4.13,0,0,0-.131-1.134,1.4,1.4,0,0,0-.467-.73,2.2,2.2,0,0,0-.937-.394,7.774,7.774,0,0,0-1.518-.122h-1.463c-.513,0-.986.02-1.384.046l.2-.986c.352,0,.763-.023,1.236-.03h1.407a8.444,8.444,0,0,1,1.9.181,3.188,3.188,0,0,1,1.265.559,2.222,2.222,0,0,1,.713.986,4.36,4.36,0,0,1,.224,1.489Zm-6.8-1.818a2.651,2.651,0,0,0,.122.861,1.335,1.335,0,0,0,.414.6,1.8,1.8,0,0,0,.786.358,5.955,5.955,0,0,0,1.246.112h3.185v-2.248a2.143,2.143,0,0,0-.2-.986,1.505,1.505,0,0,0-.572-.611,2.767,2.767,0,0,0-.927-.329,7.632,7.632,0,0,0-1.265-.092h-.243a3.245,3.245,0,0,0-1.972.46,1.961,1.961,0,0,0-.575,1.643Z" transform="translate(-345.391 -104.982)" fill="#002f87"/>
      <path id="Path_5" data-name="Path 5" d="M537.242,149.568a2.317,2.317,0,0,1-1.236.986,5.916,5.916,0,0,1-2.021.3,4.316,4.316,0,0,1-3.1-.956,4.416,4.416,0,0,1-.986-3.241v-1.223a6.805,6.805,0,0,1,.243-1.956,2.9,2.9,0,0,1,.759-1.292,2.994,2.994,0,0,1,1.315-.723,8.177,8.177,0,0,1,3.878.02,2.984,2.984,0,0,1,1.315.749,2.876,2.876,0,0,1,.713,1.292,7.17,7.17,0,0,1,.214,1.854v5.134a6.345,6.345,0,0,1-.233,1.864,2.694,2.694,0,0,1-.749,1.229,3.1,3.1,0,0,1-1.348.657,8.493,8.493,0,0,1-2.015.2h-1.472c-.457,0-.986-.023-1.564-.049l.227-.953c.549.023,1.029.039,1.443.046s.868,0,1.367,0a7.3,7.3,0,0,0,1.545-.141,2.2,2.2,0,0,0,1.012-.486,1.942,1.942,0,0,0,.552-.927,5.373,5.373,0,0,0,.168-1.463Zm-3.165.329a6.8,6.8,0,0,0,1.209-.1,2.6,2.6,0,0,0,1.012-.4,2,2,0,0,0,.69-.841,3.366,3.366,0,0,0,.253-1.423v-1.706a6.163,6.163,0,0,0-.168-1.574,2.113,2.113,0,0,0-.542-.986,2.041,2.041,0,0,0-.986-.506,6.479,6.479,0,0,0-1.479-.141,5.877,5.877,0,0,0-1.463.151,1.88,1.88,0,0,0-1.459,1.515,7.116,7.116,0,0,0-.151,1.614v1.1a6.451,6.451,0,0,0,.177,1.643,2.182,2.182,0,0,0,.555,1.009,1.926,1.926,0,0,0,.953.5,6.308,6.308,0,0,0,1.387.131" transform="translate(-366.132 -104.495)" fill="#002f87"/>
      <path id="Path_6" data-name="Path 6" d="M563.635,146.671a9.633,9.633,0,0,0,.131,1.762,2.4,2.4,0,0,0,.467,1.1,1.8,1.8,0,0,0,.927.582,5.748,5.748,0,0,0,1.528.168h1.555c.5,0,1.035,0,1.61-.026l-.207.953c-.424,0-.9.023-1.433.03h-1.525a6.3,6.3,0,0,1-2.044-.283,2.79,2.79,0,0,1-1.262-.832,3.251,3.251,0,0,1-.657-1.377,8.689,8.689,0,0,1-.187-1.913v-1.18a7.582,7.582,0,0,1,.233-2.011,3.225,3.225,0,0,1,.733-1.361,2.906,2.906,0,0,1,1.262-.766,5.979,5.979,0,0,1,1.818-.243,4.22,4.22,0,0,1,3.027.907,3.88,3.88,0,0,1,.927,2.876v.45a3.331,3.331,0,0,1-.046.618.719.719,0,0,1-.161.345.549.549,0,0,1-.309.161,2.786,2.786,0,0,1-.477.036Zm2.958-4.476a5.367,5.367,0,0,0-1.351.148,1.854,1.854,0,0,0-.917.546,2.373,2.373,0,0,0-.516,1.085,8.282,8.282,0,0,0-.158,1.781h5.916v-.624a4.965,4.965,0,0,0-.168-1.4,1.87,1.87,0,0,0-1.443-1.377,5.541,5.541,0,0,0-1.348-.141" transform="translate(-388.045 -104.519)" fill="#002f87"/>
      <path id="Path_7" data-name="Path 7" d="M594,151.735v-6.35a5.177,5.177,0,0,1,.214-1.61,2.37,2.37,0,0,1,.657-1.022,2.412,2.412,0,0,1,1.068-.532,6.38,6.38,0,0,1,1.479-.151h1.18c.375,0,.657,0,.881.02l-.2.986c-.164,0-.424-.02-.779-.026h-1.022a4.627,4.627,0,0,0-1.17.122,1.479,1.479,0,0,0-.72.4,1.594,1.594,0,0,0-.375.756,5.36,5.36,0,0,0-.115,1.209v6.218Z" transform="translate(-409.164 -105.051)" fill="#002f87"/>
      <path id="Path_8" data-name="Path 8" d="M166.148,136.251a6.79,6.79,0,0,1,1.643.47,3.024,3.024,0,0,1,1.052.759,2.8,2.8,0,0,1,.562,1.085,5.676,5.676,0,0,1,.168,1.453v.283a5.094,5.094,0,0,1-.263,1.732,2.629,2.629,0,0,1-.881,1.2,4.049,4.049,0,0,1-1.643.7,11.6,11.6,0,0,1-2.491.227h-3.231l-1.643-.03.47-2.508c.986.023,1.827.036,2.518.036h1.923a6.627,6.627,0,0,0,1.019-.066,1.683,1.683,0,0,0,.638-.214.756.756,0,0,0,.329-.4,2.087,2.087,0,0,0,.085-.657,3.064,3.064,0,0,0-.049-.6.766.766,0,0,0-.2-.4,1.246,1.246,0,0,0-.431-.263,4.547,4.547,0,0,0-.723-.177l-1.972-.329a8.351,8.351,0,0,1-1.768-.486,2.931,2.931,0,0,1-1.094-.74,2.393,2.393,0,0,1-.552-1.068,6.041,6.041,0,0,1-.151-1.443v-.3a4.411,4.411,0,0,1,.263-1.591,2.738,2.738,0,0,1,.861-1.18,4.053,4.053,0,0,1,1.564-.74,9.275,9.275,0,0,1,2.35-.253h3.214l1.472.03-.47,2.511q-1.459-.039-2.481-.039h-1.808a5.679,5.679,0,0,0-.937.066,1.571,1.571,0,0,0-.582.207.772.772,0,0,0-.289.385,1.844,1.844,0,0,0-.085.6,2.6,2.6,0,0,0,.049.546.753.753,0,0,0,.187.375,1.094,1.094,0,0,0,.4.253,3.616,3.616,0,0,0,.693.177Z" transform="translate(-117.42 -97.449)" fill="#002f87"/>
      <path id="Path_9" data-name="Path 9" d="M199.025,151.73a10.04,10.04,0,0,1-2.087-.187,3.52,3.52,0,0,1-1.433-.621,2.475,2.475,0,0,1-.825-1.14,5.157,5.157,0,0,1-.263-1.762V141.63h2.978v6.245a3.587,3.587,0,0,0,.056.674.986.986,0,0,0,.227.47.953.953,0,0,0,.486.27,3.517,3.517,0,0,0,.861.085,3.424,3.424,0,0,0,.841-.062.881.881,0,0,0,.71-.739,3.333,3.333,0,0,0,.056-.674v-6.245h2.981v6.389a5.156,5.156,0,0,1-.263,1.762,2.475,2.475,0,0,1-.825,1.14,3.52,3.52,0,0,1-1.433.621,9.981,9.981,0,0,1-2.071.187" transform="translate(-140.913 -104.757)" fill="#002f87"/>
      <path id="Path_10" data-name="Path 10" d="M237.486,138.628a7.951,7.951,0,0,1-.253,2.143,3.165,3.165,0,0,1-.835,1.453,3.451,3.451,0,0,1-1.509.825,9.9,9.9,0,0,1-4.447.02,3.392,3.392,0,0,1-1.472-.789,3.139,3.139,0,0,1-.832-1.423,7.56,7.56,0,0,1-.263-2.156v-9.61h2.978v4.4a3.359,3.359,0,0,1,.966-.421,5.423,5.423,0,0,1,1.453-.161,6.218,6.218,0,0,1,1.864.253,3,3,0,0,1,1.315.815,3.444,3.444,0,0,1,.779,1.453,8.036,8.036,0,0,1,.253,2.163Zm-4.8-3.372a4.173,4.173,0,0,0-.92.082,1.058,1.058,0,0,0-.562.329,1.315,1.315,0,0,0-.279.638,5.8,5.8,0,0,0-.076,1.022v1.384a7.562,7.562,0,0,0,.076,1.183,1.384,1.384,0,0,0,.273.67,1.055,1.055,0,0,0,.562.329,3.852,3.852,0,0,0,.9.085,3.908,3.908,0,0,0,.851-.076,1.009,1.009,0,0,0,.562-.309,1.377,1.377,0,0,0,.3-.684,6.849,6.849,0,0,0,.082-1.2v-1.14a6.852,6.852,0,0,0-.082-1.19,1.515,1.515,0,0,0-.293-.7,1.022,1.022,0,0,0-.542-.329,3.667,3.667,0,0,0-.861-.082" transform="translate(-163.375 -96.338)" fill="#002f87"/>
      <path id="Path_11" data-name="Path 11" d="M263.915,144.356a.516.516,0,0,0,.187.44,1.929,1.929,0,0,0,.841.2l1.726.148a5,5,0,0,1,1.443.329,2.692,2.692,0,0,1,.927.618,2.153,2.153,0,0,1,.486.871,4.015,4.015,0,0,1,.141,1.078v.329a2.655,2.655,0,0,1-1.032,2.3,5.552,5.552,0,0,1-3.241.733h-3.185c-.424,0-.832-.016-1.219-.03l.414-2.3q.937.02,2.061.03h2.021a2.876,2.876,0,0,0,1.062-.131.546.546,0,0,0,.27-.546.592.592,0,0,0-.187-.477,1.611,1.611,0,0,0-.841-.2l-1.837-.184a3.038,3.038,0,0,1-2.212-.9,2.912,2.912,0,0,1-.657-1.929v-.358a3.175,3.175,0,0,1,.223-1.226,2.205,2.205,0,0,1,.723-.907,3.533,3.533,0,0,1,1.315-.572,8.391,8.391,0,0,1,1.972-.2h2.758l1.436.026-.434,2.3-1.489-.026h-2.445a3.329,3.329,0,0,0-.937.092.44.44,0,0,0-.26.47" transform="translate(-185.607 -104.653)" fill="#002f87"/>
      <path id="Path_12" data-name="Path 12" d="M312.268,143.009a9.331,9.331,0,0,1-2.3-.233,3.146,3.146,0,0,1-1.459-.776,3.007,3.007,0,0,1-.779-1.417,8.644,8.644,0,0,1-.223-2.143v-.864a7.9,7.9,0,0,1,.253-2.163,3.414,3.414,0,0,1,.776-1.443,3.05,3.05,0,0,1,1.341-.805,6.531,6.531,0,0,1,1.919-.253,5.683,5.683,0,0,1,1.341.151,2.712,2.712,0,0,1,.986.411V129.09H317.1v11.99a1.949,1.949,0,0,1-.477,1.509,2.533,2.533,0,0,1-1.66.421Zm1.857-2.34v-3.484a4.6,4.6,0,0,0-.085-.986,1.15,1.15,0,0,0-.3-.588,1.127,1.127,0,0,0-.562-.293,4.294,4.294,0,0,0-.871-.072,3.51,3.51,0,0,0-.891.092,1.009,1.009,0,0,0-.542.329,1.442,1.442,0,0,0-.273.674,6.842,6.842,0,0,0-.076,1.124v.9a7.373,7.373,0,0,0,.076,1.173,1.541,1.541,0,0,0,.273.693.953.953,0,0,0,.552.329,4,4,0,0,0,.9.085Z" transform="translate(-216.834 -96.338)" fill="#002f87"/>
      <rect id="Rectangle_1" data-name="Rectangle 1" width="2.978" height="9.798" transform="translate(102.057 36.873)" fill="#002f87"/>
      <path id="Path_13" data-name="Path 13" d="M359.122,146.918a3.36,3.36,0,0,0,.1.786.986.986,0,0,0,.3.486,1.177,1.177,0,0,0,.572.253,4.88,4.88,0,0,0,.9.066h1.643q.894,0,1.995-.02l-.431,2.324c-.624.026-1.206.039-1.742.039H360.7a7.6,7.6,0,0,1-2.209-.273,3.178,3.178,0,0,1-1.407-.825,3.1,3.1,0,0,1-.74-1.387,7.811,7.811,0,0,1-.217-1.956V145.38a7.887,7.887,0,0,1,.237-2.051,3.313,3.313,0,0,1,.786-1.453,3.425,3.425,0,0,1,1.443-.871,7.27,7.27,0,0,1,2.2-.289,4.727,4.727,0,0,1,3.372.986,3.661,3.661,0,0,1,1.009,2.744v.394a5.7,5.7,0,0,1-.072,1.012,1.42,1.42,0,0,1-.273.638,1.012,1.012,0,0,1-.516.329,2.8,2.8,0,0,1-.785.1Zm1.61-4.01a3.06,3.06,0,0,0-.815.085.91.91,0,0,0-.486.3,1.226,1.226,0,0,0-.243.588,5.627,5.627,0,0,0-.066.986h3.241a5.976,5.976,0,0,0-.066-.986,1.2,1.2,0,0,0-.253-.588.966.966,0,0,0-.5-.3,3.077,3.077,0,0,0-.815-.085" transform="translate(-249.476 -104.142)" fill="#002f87"/>
      <path id="Path_14" data-name="Path 14" d="M294.014,141.69h-1.094l-1.489-.03-.431,2.3.815.02v7.474h2.978V141.69Z" transform="translate(-205.754 -104.777)" fill="#002f87"/>
      <path id="Path_15" data-name="Path 15" d="M186.5,82.18l6.5,6.5-9.752-6.5Z" transform="translate(-133.418 -64.846)" fill="#002f87"/>
      <path id="Path_16" data-name="Path 16" d="M186.5,82.18l6.5,6.5-9.752-6.5Z" transform="translate(-133.418 -64.846)" fill="none" stroke="#fff" stroke-linejoin="round" stroke-width="0.5"/>
      <path id="Path_17" data-name="Path 17" d="M193,90.847,183.25,82.18l1.085,3.251Z" transform="translate(-133.418 -64.846)" fill="#002f87"/>
      <path id="Path_18" data-name="Path 18" d="M193,90.847,183.25,82.18l1.085,3.251Z" transform="translate(-133.418 -64.846)" fill="none" stroke="#fff" stroke-linejoin="round" stroke-width="0.5"/>
      <path id="Path_19" data-name="Path 19" d="M179.911,85.431l-3.251-2.169,2.166-1.081Z" transform="translate(-128.994 -64.846)" fill="#92c0e9"/>
      <path id="Path_20" data-name="Path 20" d="M179.911,85.431l-3.251-2.169,2.166-1.081Z" transform="translate(-128.994 -64.846)" fill="none" stroke="#fff" stroke-linejoin="round" stroke-width="0.5"/>
      <path id="Path_21" data-name="Path 21" d="M140.4,71.159h4.335l1.081-2.169Z" transform="translate(-104.651 -55.991)" fill="#92c0e9"/>
      <path id="Path_22" data-name="Path 22" d="M140.4,71.159h4.335l1.081-2.169Z" transform="translate(-104.651 -55.991)" fill="none" stroke="#fff" stroke-linejoin="round" stroke-width="0.5"/>
      <path id="Path_23" data-name="Path 23" d="M161.172,78.837,153.59,75.59h4.332Z" transform="translate(-113.506 -60.422)" fill="#92c0e9"/>
      <path id="Path_24" data-name="Path 24" d="M161.172,78.837,153.59,75.59h4.332Z" transform="translate(-113.506 -60.422)" fill="none" stroke="#fff" stroke-linejoin="round" stroke-width="0.5"/>
      <path id="Path_25" data-name="Path 25" d="M140.4,68.951,143.65,65.7l2.166,1.081Z" transform="translate(-104.651 -53.783)" fill="#92c0e9"/>
      <path id="Path_26" data-name="Path 26" d="M140.4,68.951,143.65,65.7l2.166,1.081Z" transform="translate(-104.651 -53.783)" fill="none" stroke="#fff" stroke-linejoin="round" stroke-width="0.5"/>
      <path id="Path_27" data-name="Path 27" d="M178.826,77.756,176.66,75.59l5.416,2.166Z" transform="translate(-128.994 -60.422)" fill="#92c0e9"/>
      <path id="Path_28" data-name="Path 28" d="M178.826,77.756,176.66,75.59l5.416,2.166Z" transform="translate(-128.994 -60.422)" fill="none" stroke="#fff" stroke-linejoin="round" stroke-width="0.5"/>
      <path id="Path_29" data-name="Path 29" d="M178.826,72.29l3.251,3.251-5.416-2.166Z" transform="translate(-128.994 -58.207)" fill="#ff5100"/>
      <path id="Path_30" data-name="Path 30" d="M178.826,72.29l3.251,3.251-5.416-2.166Z" transform="translate(-128.994 -58.207)" fill="none" stroke="#fff" stroke-linejoin="round" stroke-width="0.5"/>
      <path id="Path_31" data-name="Path 31" d="M161.172,78.837l-3.251,1.085L153.59,75.59Z" transform="translate(-113.506 -60.422)" fill="#002f87"/>
      <path id="Path_32" data-name="Path 32" d="M161.172,78.837l-3.251,1.085L153.59,75.59Z" transform="translate(-113.506 -60.422)" fill="none" stroke="#fff" stroke-linejoin="round" stroke-width="0.5"/>
      <path id="Path_33" data-name="Path 33" d="M137.11,79.922l5.416-4.332h-4.335Z" transform="translate(-102.442 -60.422)" fill="#92c0e9"/>
      <path id="Path_34" data-name="Path 34" d="M137.11,79.922l5.416-4.332h-4.335Z" transform="translate(-102.442 -60.422)" fill="none" stroke="#fff" stroke-linejoin="round" stroke-width="0.5"/>
      <path id="Path_35" data-name="Path 35" d="M100.85,122.676l1.522-9.544,9.311-1.292Z" transform="translate(-78.1 -84.758)" fill="#002f87"/>
      <path id="Path_36" data-name="Path 36" d="M100.85,122.676l1.522-9.544,9.311-1.292Z" transform="translate(-78.1 -84.758)" fill="none" stroke="#fff" stroke-linejoin="round" stroke-width="0.5"/>
      <path id="Path_37" data-name="Path 37" d="M109.375,92.07l5.416,6.5-9.311,1.292Z" transform="translate(-81.208 -71.486)" fill="#002f87"/>
      <path id="Path_38" data-name="Path 38" d="M109.375,92.07l5.416,6.5-9.311,1.292Z" transform="translate(-81.208 -71.486)" fill="none" stroke="#fff" stroke-linejoin="round" stroke-width="0.5"/>
      <path id="Path_39" data-name="Path 39" d="M122.746,96.352l1.085-7.582-6.5,1.085Z" transform="translate(-89.163 -69.27)" fill="#002f87"/>
      <path id="Path_40" data-name="Path 40" d="M122.746,96.352l1.085-7.582-6.5,1.085Z" transform="translate(-89.163 -69.27)" fill="none" stroke="#fff" stroke-linejoin="round" stroke-width="0.5"/>
      <path id="Path_41" data-name="Path 41" d="M114.976,71.067,104.14,62.4l4.335,9.752Z" transform="translate(-80.308 -51.567)" fill="#002f87"/>
      <path id="Path_42" data-name="Path 42" d="M114.976,71.067,104.14,62.4l4.335,9.752Z" transform="translate(-80.308 -51.567)" fill="none" stroke="#fff" stroke-linejoin="round" stroke-width="0.5"/>
      <path id="Path_43" data-name="Path 43" d="M31.63,29.44,55.465,40.273,59.8,50.024Z" transform="translate(-31.63 -29.44)" fill="#002f87"/>
      <path id="Path_44" data-name="Path 44" d="M31.63,29.44,55.465,40.273,59.8,50.024Z" transform="translate(-31.63 -29.44)" fill="none" stroke="#fff" stroke-linejoin="round" stroke-width="0.5"/>
      <path id="Path_45" data-name="Path 45" d="M120.63,75.59h6.5l-1.081,4.332Z" transform="translate(-91.379 -60.422)" fill="#92c0e9"/>
      <path id="Path_46" data-name="Path 46" d="M120.63,75.59h6.5l-1.081,4.332Z" transform="translate(-91.379 -60.422)" fill="none" stroke="#fff" stroke-linejoin="round" stroke-width="0.5"/>
      <path id="Path_47" data-name="Path 47" d="M104.14,62.4l11.917,4.335h-6.5Z" transform="translate(-80.308 -51.567)" fill="#92c0e9"/>
      <path id="Path_48" data-name="Path 48" d="M104.14,62.4l11.917,4.335h-6.5Z" transform="translate(-80.308 -51.567)" fill="none" stroke="#fff" stroke-linejoin="round" stroke-width="0.5"/>
      <path id="Path_49" data-name="Path 49" d="M104.14,62.4l11.917,4.335,3.251-3.251Z" transform="translate(-80.308 -51.567)" fill="#92c0e9"/>
      <path id="Path_50" data-name="Path 50" d="M104.14,62.4l11.917,4.335,3.251-3.251Z" transform="translate(-80.308 -51.567)" fill="none" stroke="#fff" stroke-linejoin="round" stroke-width="0.5"/>
      <path id="Path_51" data-name="Path 51" d="M98.22,151.291l.864-6.481,2.031,8.667Z" transform="translate(-76.334 -106.892)" fill="#ff5100"/>
      <path id="Path_52" data-name="Path 52" d="M98.22,151.291l.864-6.481,2.031,8.667Z" transform="translate(-76.334 -106.892)" fill="none" stroke="#fff" stroke-linejoin="round" stroke-width="0.5"/>
      <path id="Path_53" data-name="Path 53" d="M109.84,149.421l1.66-7.911-4.47,9.748Z" transform="translate(-82.249 -104.676)" fill="#ff5100"/>
      <path id="Path_54" data-name="Path 54" d="M109.84,149.421l1.66-7.911-4.47,9.748Z" transform="translate(-82.249 -104.676)" fill="none" stroke="#fff" stroke-linejoin="round" stroke-width="0.5"/>
      <path id="Path_55" data-name="Path 55" d="M107.351,141.51l-4.47,9.748-2.031-8.664Z" transform="translate(-78.1 -104.676)" fill="#ff5100"/>
      <path id="Path_56" data-name="Path 56" d="M107.351,141.51l-4.47,9.748-2.031-8.664Z" transform="translate(-78.1 -104.676)" fill="none" stroke="#fff" stroke-linejoin="round" stroke-width="0.5"/>
      <path id="Path_57" data-name="Path 57" d="M111.683,111.84l-4.332,9.752-6.5,1.085Z" transform="translate(-78.1 -84.758)" fill="#ff5100"/>
      <path id="Path_58" data-name="Path 58" d="M111.683,111.84l-4.332,9.752-6.5,1.085Z" transform="translate(-78.1 -84.758)" fill="none" stroke="#fff" stroke-linejoin="round" stroke-width="0.5"/>
      <path id="Path_59" data-name="Path 59" d="M135.795,88.77,120.63,106.1l13-8.667Z" transform="translate(-91.379 -69.27)" fill="#ff5100"/>
      <path id="Path_60" data-name="Path 60" d="M135.795,88.77,120.63,106.1l13-8.667Z" transform="translate(-91.379 -69.27)" fill="none" stroke="#fff" stroke-linejoin="round" stroke-width="0.5"/>
      <path id="Path_61" data-name="Path 61" d="M124.962,96.352l10.833-7.582L120.63,106.1Z" transform="translate(-91.379 -69.27)" fill="#ff5100"/>
      <path id="Path_62" data-name="Path 62" d="M124.962,96.352l10.833-7.582L120.63,106.1Z" transform="translate(-91.379 -69.27)" fill="none" stroke="#fff" stroke-linejoin="round" stroke-width="0.5"/>
      <path id="Path_63" data-name="Path 63" d="M134.895,88.77h9.748L133.81,96.352Z" transform="translate(-100.227 -69.27)" fill="#ff5100"/>
      <path id="Path_64" data-name="Path 64" d="M134.895,88.77h9.748L133.81,96.352Z" transform="translate(-100.227 -69.27)" fill="none" stroke="#fff" stroke-linejoin="round" stroke-width="0.5"/>
      <path id="Path_65" data-name="Path 65" d="M137.11,79.922h9.748l-4.332-4.332Z" transform="translate(-102.442 -60.422)" fill="#ff5100"/>
      <path id="Path_66" data-name="Path 66" d="M137.11,79.922h9.748l-4.332-4.332Z" transform="translate(-102.442 -60.422)" fill="none" stroke="#fff" stroke-linejoin="round" stroke-width="0.5"/>
      <path id="Path_67" data-name="Path 67" d="M150.29,65.7l2.166,1.085,2.166-1.085Z" transform="translate(-111.29 -53.783)" fill="#92c0e9"/>
      <path id="Path_68" data-name="Path 68" d="M150.29,65.7l2.166,1.085,2.166-1.085Z" transform="translate(-111.29 -53.783)" fill="none" stroke="#fff" stroke-linejoin="round" stroke-width="0.5"/>
      <path id="Path_69" data-name="Path 69" d="M150.29,61.276l3.251-2.166,1.081,2.166Z" transform="translate(-111.29 -49.358)" fill="#92c0e9"/>
      <path id="Path_70" data-name="Path 70" d="M150.29,61.276l3.251-2.166,1.081,2.166Z" transform="translate(-111.29 -49.358)" fill="none" stroke="#fff" stroke-linejoin="round" stroke-width="0.5"/>
      <path id="Path_71" data-name="Path 71" d="M160.18,59.11h4.332l-3.251,2.166Z" transform="translate(-117.93 -49.358)" fill="#92c0e9"/>
      <path id="Path_72" data-name="Path 72" d="M160.18,59.11h4.332l-3.251,2.166Z" transform="translate(-117.93 -49.358)" fill="none" stroke="#fff" stroke-linejoin="round" stroke-width="0.5"/>
      <path id="Path_73" data-name="Path 73" d="M163.47,61.276l3.251-2.166,5.416,3.251Z" transform="translate(-120.139 -49.358)" fill="#92c0e9"/>
      <path id="Path_74" data-name="Path 74" d="M163.47,61.276l3.251-2.166,5.416,3.251Z" transform="translate(-120.139 -49.358)" fill="none" stroke="#fff" stroke-linejoin="round" stroke-width="0.5"/>
      <path id="Path_75" data-name="Path 75" d="M173.222,68.951,163.47,65.7l8.667,1.081Z" transform="translate(-120.139 -53.783)" fill="#92c0e9"/>
      <path id="Path_76" data-name="Path 76" d="M173.222,68.951,163.47,65.7l8.667,1.081Z" transform="translate(-120.139 -53.783)" fill="none" stroke="#fff" stroke-linejoin="round" stroke-width="0.5"/>
      <path id="Path_77" data-name="Path 77" d="M183.25,72.29l3.251,3.251V73.375Z" transform="translate(-133.418 -58.207)" fill="#92c0e9"/>
      <path id="Path_78" data-name="Path 78" d="M183.25,72.29l3.251,3.251V73.375Z" transform="translate(-133.418 -58.207)" fill="none" stroke="#fff" stroke-linejoin="round" stroke-width="0.5"/>
      <path id="Path_79" data-name="Path 79" d="M154.671,68.99l3.251,2.169H153.59Z" transform="translate(-113.506 -55.991)" fill="#ff5100"/>
      <path id="Path_80" data-name="Path 80" d="M154.671,68.99l3.251,2.169H153.59Z" transform="translate(-113.506 -55.991)" fill="none" stroke="#fff" stroke-linejoin="round" stroke-width="0.5"/>
      <path id="Path_81" data-name="Path 81" d="M170.021,75.59v3.247L166.77,75.59Z" transform="translate(-122.354 -60.422)" fill="#92c0e9"/>
      <path id="Path_82" data-name="Path 82" d="M170.021,75.59v3.247L166.77,75.59Z" transform="translate(-122.354 -60.422)" fill="none" stroke="#fff" stroke-linejoin="round" stroke-width="0.5"/>
      <path id="Path_83" data-name="Path 83" d="M176.66,75.59l2.166,2.166-2.166,1.081Z" transform="translate(-128.994 -60.422)" fill="#92c0e9"/>
      <path id="Path_84" data-name="Path 84" d="M176.66,75.59l2.166,2.166-2.166,1.081Z" transform="translate(-128.994 -60.422)" fill="none" stroke="#fff" stroke-linejoin="round" stroke-width="0.5"/>
      <path id="Path_85" data-name="Path 85" d="M168.936,68.99l1.085,2.169H166.77Z" transform="translate(-122.354 -55.991)" fill="#ff5100"/>
      <path id="Path_86" data-name="Path 86" d="M168.936,68.99l1.085,2.169H166.77Z" transform="translate(-122.354 -55.991)" fill="none" stroke="#fff" stroke-linejoin="round" stroke-width="0.5"/>
      <path id="Path_87" data-name="Path 87" d="M163.47,65.7l3.251,1.085-2.166,2.166Z" transform="translate(-120.139 -53.783)" fill="#ff5100"/>
      <path id="Path_88" data-name="Path 88" d="M163.47,65.7l3.251,1.085-2.166,2.166Z" transform="translate(-120.139 -53.783)" fill="none" stroke="#fff" stroke-linejoin="round" stroke-width="0.5"/>
      <path id="Path_89" data-name="Path 89" d="M159.046,65.7l1.085,3.251-3.251-2.166Z" transform="translate(-115.715 -53.783)" fill="#ff5100"/>
      <path id="Path_90" data-name="Path 90" d="M159.046,65.7l1.085,3.251-3.251-2.166Z" transform="translate(-115.715 -53.783)" fill="none" stroke="#fff" stroke-linejoin="round" stroke-width="0.5"/>
      <path id="Path_91" data-name="Path 91" d="M89.093,82.156l3.895-7.789L81.07,65.7Z" transform="translate(-64.821 -53.783)" fill="#92c0e9"/>
      <path id="Path_92" data-name="Path 92" d="M89.093,82.156l3.895-7.789L81.07,65.7Z" transform="translate(-64.821 -53.783)" fill="none" stroke="#fff" stroke-linejoin="round" stroke-width="0.5"/>
      <path id="Path_93" data-name="Path 93" d="M31.63,39.33,55.9,64.453,47.879,48Z" transform="translate(-31.63 -36.079)" fill="#92c0e9"/>
      <path id="Path_94" data-name="Path 94" d="M31.63,39.33,55.9,64.453,47.879,48Z" transform="translate(-31.63 -36.079)" fill="none" stroke="#fff" stroke-linejoin="round" stroke-width="0.5"/>
      <path id="Path_95" data-name="Path 95" d="M31.63,29.44l5.114,5.978,11.135,5.939Z" transform="translate(-31.63 -29.44)" fill="#002f87"/>
      <path id="Path_96" data-name="Path 96" d="M31.63,29.44l5.114,5.978,11.135,5.939Z" transform="translate(-31.63 -29.44)" fill="none" stroke="#fff" stroke-linejoin="round" stroke-width="0.5"/>
      <path id="Path_97" data-name="Path 97" d="M104.14,55.81l15.168,3.251-14.083-1.085Z" transform="translate(-80.308 -47.143)" fill="#92c0e9"/>
      <path id="Path_98" data-name="Path 98" d="M104.14,55.81l15.168,3.251-14.083-1.085Z" transform="translate(-80.308 -47.143)" fill="none" stroke="#fff" stroke-linejoin="round" stroke-width="0.5"/>
      <path id="Path_99" data-name="Path 99" d="M110.74,49.22l13,5.416-9.748-2.166Z" transform="translate(-84.739 -42.719)" fill="#92c0e9"/>
      <path id="Path_100" data-name="Path 100" d="M110.74,49.22l13,5.416-9.748-2.166Z" transform="translate(-84.739 -42.719)" fill="none" stroke="#fff" stroke-linejoin="round" stroke-width="0.5"/>
      <path id="Path_101" data-name="Path 101" d="M117.33,45.92l10.833,6.5-7.582-3.251Z" transform="translate(-89.163 -40.504)" fill="#92c0e9"/>
      <path id="Path_102" data-name="Path 102" d="M117.33,45.92l10.833,6.5-7.582-3.251Z" transform="translate(-89.163 -40.504)" fill="none" stroke="#fff" stroke-linejoin="round" stroke-width="0.5"/>
      <path id="Path_103" data-name="Path 103" d="M174.445,71.159l2.166-1.085L173.36,68.99Z" transform="translate(-126.778 -55.991)" fill="#002f87"/>
      <path id="Path_104" data-name="Path 104" d="M174.445,71.159l2.166-1.085L173.36,68.99Z" transform="translate(-126.778 -55.991)" fill="none" stroke="#fff" stroke-linejoin="round" stroke-width="0.5"/>
    </g>
  </g>
</svg>
